# xmcd
#
# Track frame offsets:
#	187
#	16712
#	30132
#	40637
#	52825
#	61237
#	71062
#	82602
#	95562
#	108312
#	121775
#	139012
#
# Disc length: 2293 seconds
#
# Revision: 4
# Processed by: cddbd v1.5.2PL0 Copyright (c) Steve Scherf et al.
# Submitted via: EasyCDDAExtractor 2011.3.0.0
#
DISCID=8008f30c
DTITLE=Elvis Presley - Reconsider Baby
DYEAR=1985
DGENRE=Blues
TTITLE0=Reconsider Baby
TTITLE1=Tomorrow Night (Previously Unreleased Sun Master)
TTITLE2=So Glad You're Mine
TTITLE3=One Night (Alternate Take With Original Lyrics)
TTITLE4=When it Rains, It Really Pours
TTITLE5=My Baby Left Me
TTITLE6=Ain't That Loving You Baby (Previously Unreleased Alternate Take)
TTITLE7=I Feel So Bad
TTITLE8=Down In The Alley
TTITLE9=Hi-Heel Sneekers
TTITLE10=Stranger In My Home Town (Alternate Mix)
TTITLE11=Merry Christmas Baby (Alternate Edit)
EXTD=Originally Released 1985\n\nAMG EXPERT REVIEW: A 12-song, budget-priced c
EXTD=ompilation of Elvis' most \nnotable blues sides for the label. A good pla
EXTD=ce to start digging Elvis' \ncommitment to the music -- always returning 
EXTD=to it right up through the \n'70s like an old friend, whenever he needed 
EXTD=a quick fix of the real thing \n-- as he takes on everything from R&B sli
EXTD=ces like Tommy Tucker's "High \nHeel Sneakers" to Percy Mayfield's "Stran
EXTD=ger in My Own Home Town." Major \nhighlights on this collection are Elvis
EXTD=playing acoustic rhythm guitar \nand driving the band through a take of 
EXTD=the Lowell Fulson title track, \nblistering versions of two Arthur Crudup
EXTD=songs, an unreleased Sun recording \nof Lonnie Johnson's "Tomorrow Night
EXTD=," and the R-rated take of Smiley Lewis's \n"One Night (of Sin)." -- Cub 
EXTD=Koda\n
EXTT0=
EXTT1=
EXTT2=
EXTT3=
EXTT4=
EXTT5=
EXTT6=
EXTT7=
EXTT8=
EXTT9=
EXTT10=
EXTT11=
PLAYORDER=
